<svg xmlns="http://www.w3.org/2000/svg" viewBox="0 0 30.55 35.28"><g id="Capa_2" data-name="Capa 2"><g id="Capa_1-2" data-name="Capa 1"><polygon points="30.55 26.46 30.55 8.82 15.28 0 0 8.82 0 26.46 15.28 35.28 30.55 26.46" style="fill:#ddcd00"/><polygon points="28.25 25.13 28.25 10.15 15.28 2.66 2.3 10.15 2.3 25.13 15.28 32.62 28.25 25.13" style="fill:#fff000"/><path d="M16.53,16.16a1.19,1.19,0,0,1-.33.82,1.17,1.17,0,0,1-.89.39,1.21,1.21,0,0,1-1.21-1.21,1.24,1.24,0,0,1,.19-.66,1.19,1.19,0,0,1,1-.56,1.23,1.23,0,0,1,1.22,1.22Z" style="fill:#1d1d1b"/><path d="M15.31,17.87a1.72,1.72,0,0,1-1.72-1.71,1.8,1.8,0,0,1,.27-.93,1.72,1.72,0,1,1,1.45,2.64Zm0-2.43a.73.73,0,0,0-.6.33.74.74,0,0,0-.11.39.71.71,0,0,0,.71.71.68.68,0,0,0,.52-.23.66.66,0,0,0,.19-.48.7.7,0,0,0-.71-.72Z" style="fill:#1d1d1b"/><path d="M14.29,16a.51.51,0,0,1-.36-.15l-3.44-3.44L7.21,9.13a.53.53,0,0,1-.11-.55.5.5,0,0,1,.47-.31h5.49a.5.5,0,0,1,0,1H8.78L11.2,11.7l3.44,3.44a.5.5,0,0,1,0,.71A.49.49,0,0,1,14.29,16Z" style="fill:#1d1d1b"/><path d="M16.2,15.83a.47.47,0,0,1-.35-.15.5.5,0,0,1,0-.71L18,12.79l3.52-3.52H17.73a.5.5,0,0,1,0-1h5a.5.5,0,0,1,.46.31.51.51,0,0,1-.11.55L18.74,13.5l-2.18,2.18A.51.51,0,0,1,16.2,15.83Z" style="fill:#1d1d1b"/><path d="M16.09,27.55A9.77,9.77,0,0,1,15,27.49c-1.21-.15-3.47-.43-4.64-2.33a4.42,4.42,0,0,1-.31-4,4.3,4.3,0,0,1,2.78-2.11c2.25-.54,4.37,1,6.07,2.25,1.24.91,2.41,1.77,3.06,1.37a1.19,1.19,0,0,0,.51-.85c.1-1.06-1.86-2.89-6.43-4.36l.3-.95C21,18,23.66,20,23.48,21.93a2.23,2.23,0,0,1-1,1.6c-1.22.74-2.65-.31-4.18-1.42S14.87,19.6,13.06,20A3.45,3.45,0,0,0,11,21.61a3.47,3.47,0,0,0,.26,3c.92,1.48,2.79,1.71,3.91,1.85a8.28,8.28,0,0,0,4.13-.57l.37.94A9.68,9.68,0,0,1,16.09,27.55Z" style="fill:#1d1d1b"/><path d="M21.11,25.84a.92.92,0,0,1-.92.92,1,1,0,0,1-.75-.37h0a1,1,0,0,1-.18-.55.93.93,0,1,1,1.85,0Z" style="fill:#1d1d1b"/><path d="M20.19,27.26a1.43,1.43,0,0,1-1.11-.52l0-.06a1.47,1.47,0,0,1-.27-.84,1.43,1.43,0,1,1,1.43,1.42Zm-.36-1.18h0a.42.42,0,1,0-.08-.24A.55.55,0,0,0,19.83,26.08Z" style="fill:#1d1d1b"/><rect x="12.56" y="7.72" width="1" height="2.1" style="fill:#1d1d1b"/><rect x="17.23" y="7.72" width="1" height="2.1" style="fill:#1d1d1b"/></g></g></svg>