<?xml version="1.0" standalone="no"?>
<!DOCTYPE svg PUBLIC "-//W3C//DTD SVG 20010904//EN"
 "http://www.w3.org/TR/2001/REC-SVG-20010904/DTD/svg10.dtd">
<svg version="1.0" xmlns="http://www.w3.org/2000/svg"
 width="36.000000pt" height="36.000000pt" viewBox="0 0 36.000000 36.000000"
 preserveAspectRatio="xMidYMid meet">

<g transform="translate(0.000000,36.000000) scale(0.100000,-0.100000)"
fill="#000000" stroke="none">
<path d="M104 319 c-38 -22 -72 -46 -76 -52 -4 -7 -8 -44 -8 -84 0 -80 -1 -79
106 -138 l51 -28 74 44 74 44 3 77 c3 88 0 93 -96 145 l-58 32 -70 -40z m142
-15 l64 -36 0 -78 0 -78 -67 -38 -67 -37 -66 36 -65 36 -3 79 -3 80 63 36 c35
19 67 35 71 36 5 0 38 -16 73 -36z"/>
</g>
</svg>
